<svg width="1858" height="2049" viewBox="0 0 1858 2049" fill="none" xmlns="http://www.w3.org/2000/svg">
<path d="M1732.65 1331.13C1659.38 1611.28 1340.24 1822.13 957.649 1822.13C575.057 1822.13 255.921 1611.28 182.648 1331.13H1732.65Z" fill="#00243B"/>
<path fill-rule="evenodd" clip-rule="evenodd" d="M1769.46 1306.09C1781.27 1238.04 1836.19 1121.26 1836.19 1049.13C1836.19 467.548 1454.56 57.0867 957.65 57.0867C460.735 57.0867 81.6934 463.548 81.6934 1045.13C81.6934 1117.26 131.624 1238.04 143.427 1306.09H1769.46Z" fill="#003C61"/>
<path d="M1005.6 887.301H1405.1C1504.23 887.301 1584.6 967.665 1584.6 1066.8V1246.3H867.599V1025.3C867.599 949.085 929.383 887.301 1005.6 887.301Z" fill="#FF6100" stroke="black" stroke-width="20"/>
<path d="M869.943 1182.59C855.943 1158.59 852.943 1120.09 865.943 1092.09" stroke="#EC0909" stroke-width="22" stroke-linecap="round" stroke-linejoin="round"/>
<path d="M1588.65 1113.09C1602.65 1137.09 1605.65 1175.59 1592.65 1203.59" stroke="#FEFE00" stroke-width="22" stroke-linecap="round" stroke-linejoin="round"/>
<path d="M1626.15 1104.59L1706.15 1055.09M1630.15 1164.59H1733.15M1626.15 1225.59L1706.15 1264.59" stroke="#FEFE00" stroke-width="22" stroke-linecap="round" stroke-linejoin="round"/>
<circle cx="1431.6" cy="1213.3" r="65" fill="white" stroke="black" stroke-width="50"/>
<circle cx="1046.6" cy="1213.3" r="65" fill="white" stroke="black" stroke-width="50"/>
<path d="M1461.6 954.801C1490.59 954.801 1514.1 978.306 1514.1 1007.3V1059.8H1289.1V954.801H1461.6Z" fill="#009FC4" stroke="black" stroke-width="15"/>
<path d="M1016.6 954.801H1189.1V1059.8H964.099V1007.3C964.099 978.306 987.604 954.801 1016.6 954.801Z" fill="#009FC4" stroke="black" stroke-width="15"/>
<path d="M1344.04 951.523L1402.43 951.604L1344.19 1063.25L1287.67 1063.17L1344.04 951.523Z" fill="white"/>
<path d="M1127.04 947.523L1185.43 947.604L1127.19 1059.25L1070.67 1059.17L1127.04 947.523Z" fill="white"/>
<path d="M1444.12 956.877L1491.63 956.876L1444.12 1052.19L1395.13 1052.19L1444.12 956.877Z" fill="white"/>
<path d="M1023.12 961.877L1070.63 961.876L1023.12 1057.19L974.132 1057.19L1023.12 961.877Z" fill="white"/>
<path d="M1461.6 954.801C1490.59 954.801 1514.1 978.306 1514.1 1007.3V1059.8H1289.1V954.801H1461.6Z" stroke="black" stroke-width="15"/>
<path d="M1016.6 954.801C987.604 954.801 964.099 978.306 964.099 1007.3V1059.8H1189.1V954.801H1016.6Z" stroke="black" stroke-width="15"/>
<g filter="url(#filter0_d_0_1)">
<path d="M656.906 1303.07L657.472 1303.07L657.817 1303.07L658.587 1303.07C690.027 1303.08 711.336 1303.09 723.786 1303.09C840.536 1216.21 719.249 1113.8 671.148 1139.59C705.408 1096.26 697.668 999.337 560.148 985.087C536.989 914.136 490.148 895.087 384.148 895.087C350.648 745.087 127.149 811.587 127.149 811.587C91.6495 877.087 109.648 1100.09 181.648 1302.23C441.373 1302.23 570.906 1303.04 656.906 1303.07Z" fill="#8B8B8B"/>
<path d="M656.906 1303.07C657.21 1303.07 657.514 1303.07 657.817 1303.07M656.906 1303.07L657.472 1303.07M656.906 1303.07C570.906 1303.04 441.373 1302.23 181.648 1302.23M657.817 1303.07L657.472 1303.07M657.817 1303.07L658.587 1303.07C690.027 1303.08 711.336 1303.09 723.786 1303.09C840.536 1216.21 719.249 1113.8 671.148 1139.59C705.408 1096.26 697.668 999.337 560.148 985.087C536.989 914.136 490.148 895.087 384.148 895.087C350.648 745.087 127.149 811.587 127.149 811.587C91.6495 877.087 109.648 1100.09 181.648 1302.23M657.472 1303.07C571.611 1303.04 441.944 1302.23 181.648 1302.23" stroke="#393939" stroke-width="19"/>
</g>
<g filter="url(#filter1_d_0_1)">
<path d="M303.707 1265.79C303.735 1267.3 304.3 1268.75 305.346 1269.84C306.392 1270.93 307.822 1271.56 309.336 1271.59C310.85 1271.62 312.338 1271.06 313.486 1270.02C314.635 1268.98 315.339 1267.56 315.512 1266.06C315.512 1266.06 315.512 1266.06 315.512 1266.06C315.995 1261.77 316.384 1257.63 316.684 1253.47C319.214 1216.02 315.26 1174.82 290.023 1142.46C264.733 1109.7 221.733 1098.7 184.07 1098.81C179.797 1098.78 175.559 1098.86 171.294 1099.05C169.775 1099.11 168.292 1099.71 167.17 1100.78C166.048 1101.84 165.378 1103.28 165.307 1104.78C165.236 1106.28 165.769 1107.74 166.789 1108.85C167.808 1109.96 169.231 1110.62 170.741 1110.75C170.741 1110.75 170.741 1110.75 170.741 1110.75C174.821 1111.11 178.842 1111.54 182.859 1112.05C218.8 1116.37 253.662 1128.42 274.086 1154.98C294.858 1181.31 301.451 1217.54 303.294 1253.65C303.493 1257.64 303.632 1261.63 303.707 1265.79Z" fill="#393939"/>
</g>
<g filter="url(#filter2_d_0_1)">
<path d="M330.048 1014.88C330.632 1016.26 331.676 1017.43 333.036 1018.1C334.395 1018.77 335.946 1018.9 337.366 1018.44C338.786 1017.99 339.976 1016.98 340.691 1015.65C341.407 1014.31 341.577 1012.75 341.251 1011.29C341.251 1011.29 341.251 1011.29 341.251 1011.29C340.507 1008.07 339.649 1004.97 338.681 1001.97C330.443 973.733 304.49 949.792 275.173 943.238C245.971 936.049 216.555 940.035 189.719 948.989C186.68 950.03 183.721 951.122 180.754 952.388C179.386 952.997 178.238 954.061 177.59 955.433C176.943 956.803 176.846 958.356 177.326 959.768C177.807 961.18 178.831 962.351 180.18 963.042C181.53 963.734 183.089 963.877 184.545 963.525C184.545 963.525 184.545 963.525 184.545 963.525C187.042 962.991 190.139 962.389 193.04 961.898C219.241 957.632 246.02 956.581 270.237 962.62C294.498 968.467 314.69 983.74 326.359 1007.05C327.643 1009.52 328.875 1012.12 330.048 1014.88Z" fill="#393939"/>
</g>
<g filter="url(#filter3_d_0_1)">
<path d="M481.318 1117.7C480.603 1119.03 480.34 1120.55 480.67 1121.99C480.999 1123.42 481.881 1124.65 483.14 1125.41C484.399 1126.17 485.947 1126.41 487.461 1126.09C488.976 1125.76 490.321 1124.9 491.282 1123.73C491.282 1123.73 491.282 1123.73 491.282 1123.73C493.239 1121.3 494.961 1119.06 496.753 1116.5C513.387 1095.93 518.609 1058.57 497.619 1037.3C478.769 1016.1 453.65 1006 429.238 997.754C426.468 996.851 423.769 996.021 420.97 995.188C419.533 994.766 417.944 994.815 416.511 995.412C415.078 996.008 413.924 997.091 413.295 998.442C412.666 999.792 412.605 1001.32 413.117 1002.7C413.629 1004.08 414.677 1005.19 415.991 1005.88C415.991 1005.88 415.991 1005.88 415.991 1005.88C418.5 1007.18 420.911 1008.46 423.388 1009.78C445.198 1021.57 467.361 1033.69 481.694 1050.13C496.541 1066.17 495.963 1088.28 485.014 1110.39C483.818 1112.91 482.678 1115.19 481.318 1117.7Z" fill="#393939"/>
</g>
<g filter="url(#filter4_d_0_1)">
<path d="M617.83 1269.63C617.066 1270.82 616.705 1272.26 616.9 1273.68C617.094 1275.11 617.816 1276.39 618.924 1277.26C620.033 1278.14 621.449 1278.54 622.878 1278.4C624.308 1278.25 625.623 1277.57 626.607 1276.55C626.607 1276.55 626.607 1276.55 626.607 1276.55C628.581 1274.46 630.439 1272.4 632.182 1270.36C647.254 1253.38 664.368 1220.31 641.782 1194.94C620.454 1173.83 590.795 1170.8 565.552 1182.44C562.823 1183.96 560.022 1185.97 557.749 1188.55C556.836 1189.63 556.291 1191.01 556.299 1192.45C556.305 1193.89 556.855 1195.25 557.839 1196.26C558.824 1197.27 560.176 1197.86 561.612 1197.9C563.048 1197.95 564.441 1197.44 565.55 1196.55C565.55 1196.55 565.55 1196.55 565.55 1196.55C566.997 1195.5 568.894 1194.58 570.884 1193.92C589.887 1188.47 615.45 1194.48 627.663 1207.65C640.365 1220.4 633.451 1243.7 621.867 1263.01C620.632 1265.15 619.288 1267.36 617.83 1269.63Z" fill="#393939"/>
</g>
<path d="M339.564 771.909L172.481 704.952L207.298 618.069L233.138 632.302L212.783 683.096L255.779 700.326L272.474 658.666L298.314 672.9L282.958 711.217L352.688 739.161L339.564 771.909ZM388.504 669.276C383.705 677.591 376.956 682.563 368.257 684.193C359.419 685.743 349.803 683.519 339.41 677.521C330.264 672.243 324.129 665.747 321.007 658.034C317.825 650.102 317.158 641.496 319.003 632.216C320.71 622.856 324.403 613.256 330.081 603.417L319.48 597.299C315.184 594.82 311.031 593.532 307.023 593.436C302.956 593.121 299.683 595.111 297.204 599.407C295.124 603.01 295.158 606.632 297.306 610.273C299.315 613.834 302.308 617.131 306.284 620.165L285.796 642.702C275.75 634.502 270.023 625.378 268.617 615.33C267.153 605.064 269.22 595.08 274.818 585.38C282.655 571.799 292.086 563.941 303.109 561.805C314.133 559.669 326.227 562.4 339.392 569.997L385.955 596.868C391.498 600.067 396.993 602.869 402.44 605.274C407.968 607.54 413.527 609.27 419.118 610.465L402.804 638.735C396.695 637.796 391.037 635.917 385.83 633.096C389.619 638.054 392.006 643.68 392.992 649.976C393.918 656.052 392.422 662.486 388.504 669.276ZM351.927 646.228C356.223 648.708 360.207 649.806 363.88 649.524C367.633 649.103 370.589 647.022 372.748 643.281C374.747 639.816 375.169 636.365 374.013 632.927C372.856 629.488 370.407 626.69 366.666 624.53L345.671 612.414C341.512 619.62 340.144 626.313 341.567 632.491C342.93 638.45 346.384 643.029 351.927 646.228ZM422.118 606.819L283.179 495.042L301.062 466.305L356.787 511.136C351.362 503.075 348.934 495.372 349.504 488.027C350.049 480.458 352.779 473.618 357.693 467.51C363.611 460.155 370.88 456.351 379.502 456.1C388.099 455.624 397.883 459.799 408.853 468.624L484.4 529.402L463.338 555.582L398.263 503.229C390.784 497.211 385.02 493.909 380.974 493.324C376.803 492.637 373.263 494.102 370.355 497.717C366.844 502.081 366.978 508.041 370.755 515.597C374.408 523.054 380.66 530.342 389.511 537.463L443.18 580.639L422.118 606.819ZM491.249 522.155L401.443 426.399L422.274 401.598L445.095 425.931C439.381 417.031 436.326 408.161 435.93 399.319C435.652 390.368 438.196 383.375 443.565 378.34C448.116 374.071 452.54 372.006 456.837 372.143L473.914 400.877C469.821 401.425 466.025 403.34 462.523 406.624C457.505 411.33 455.653 417.893 456.968 426.312C458.4 434.621 463.165 443.093 471.265 451.73L515.757 499.17L491.249 522.155ZM606.601 478.265C593.791 487.309 581.804 492.246 570.64 493.077C559.568 494.038 551.217 490.533 545.588 482.559C542.358 477.985 540.851 473.075 541.066 467.831C541.412 462.495 543.449 457.335 547.178 452.353C538.451 453.03 531.596 449.839 526.613 442.781C520.707 434.416 520.864 424.512 527.084 413.07C519.733 413.755 512.848 412.74 506.427 410.026C500.007 407.313 494.674 402.949 490.429 396.937C485.631 390.14 483.104 382.816 482.85 374.966C482.596 367.115 484.433 359.453 488.362 351.979C492.291 344.505 498.111 338.045 505.823 332.601C513.927 326.88 522.25 323.55 530.793 322.611C527.67 315.415 526.186 308.041 526.339 300.49C526.493 292.939 528.63 286.534 532.751 281.275L555.785 298.505C549.549 306.04 545.682 314.156 544.183 322.853C549.535 323.775 554.537 325.728 559.189 328.711C563.879 331.471 567.886 335.204 571.208 339.91C575.914 346.576 578.367 353.657 578.567 361.154C578.768 368.651 576.811 376.006 572.698 383.218C568.715 390.339 562.803 396.667 554.96 402.204C552.738 403.773 550.489 405.164 548.213 406.379C545.937 407.594 543.681 408.698 541.443 409.69C540.313 412.251 540.486 414.576 541.963 416.668C543.162 418.367 545.008 419.317 547.499 419.516C550.121 419.624 553.223 418.609 556.806 416.471L577.659 404.394C588.761 397.927 598.988 395.212 608.338 396.249C617.595 397.156 625.454 402.184 631.913 411.334C638.926 421.268 640.261 432.175 635.917 444.055C631.797 455.973 622.025 467.377 606.601 478.265ZM543.137 385.873C546.928 383.197 548.781 379.441 548.696 374.604C548.519 369.637 546.492 364.409 542.617 358.919C538.649 353.298 534.4 349.638 529.871 347.939C525.25 346.11 521.044 346.533 517.254 349.209C513.463 351.885 511.656 355.706 511.834 360.674C511.918 365.51 513.899 370.673 517.774 376.163C521.742 381.784 526.037 385.509 530.658 387.338C535.318 388.945 539.477 388.457 543.137 385.873ZM594.72 457.275C601.125 452.753 605.538 448.462 607.96 444.402C610.382 440.343 610.439 436.679 608.132 433.411C606.01 430.405 603.284 428.902 599.955 428.902C596.533 428.771 591.762 430.475 585.642 434.012L564.063 446.308C563.409 446.769 562.906 447.027 562.552 447.081C562.045 451.356 562.991 455.193 565.39 458.591C568.527 463.035 572.73 464.965 577.997 464.381C583.264 463.796 588.838 461.427 594.72 457.275ZM675.316 393.761C664.564 399.09 654.469 400.7 645.031 398.592C635.666 396.269 627.097 391.23 619.325 383.475C611.625 375.505 604.898 365.714 599.143 354.102C593.033 341.773 589.425 329.99 588.32 318.752C587.143 307.37 588.61 297.358 592.719 288.714C596.757 279.927 603.507 273.189 612.969 268.5C622.717 263.669 631.775 261.947 640.142 263.336C648.509 264.725 656.009 268.509 662.642 274.686C669.203 280.719 674.864 288.539 679.625 298.144C682.893 304.738 686.124 311.798 689.317 319.322L633.622 346.925C636.252 351.872 639.205 356.569 642.481 361.017C645.756 365.465 649.251 368.733 652.965 370.821C656.607 372.766 660.435 372.743 664.449 370.754C669.324 368.338 671.662 364.769 671.464 360.046C671.409 355.251 670.496 350.347 668.725 345.332L698.161 337.707C701.696 349.884 701.406 361.01 697.292 371.085C693.25 380.945 685.925 388.504 675.316 393.761ZM624.137 327.786L652.737 313.612L651.245 310.602C649.256 306.588 646.908 302.751 644.202 299.092C641.424 295.29 638.357 292.524 635 290.795C631.716 288.852 628.281 288.768 624.697 290.544C620.97 292.392 618.777 295.353 618.119 299.43C617.389 303.363 617.66 307.871 618.93 312.956C620.343 317.97 622.079 322.913 624.137 327.786ZM717.237 370.215L682.419 243.637L712.345 231.173L720.238 259.868C719.778 248.544 721.878 239.586 726.537 232.995C731.195 226.403 737.15 222.11 744.401 220.116C751.651 218.121 758.129 218.746 763.833 221.989C769.65 225.035 774.554 231.403 778.546 241.091C778.453 230.496 780.645 222.177 785.123 216.133C789.754 210.047 795.618 206.027 802.715 204.075C811.508 201.657 819.11 203.05 825.52 208.257C831.931 213.463 837.152 223.394 841.183 238.05L866.262 329.223L833.865 338.135L811.332 256.217C809.083 248.041 806.665 242.566 804.077 239.793C801.643 236.978 798.729 236.037 795.335 236.971C790.707 238.244 787.741 242.544 786.438 249.872C785.247 257.004 786.327 266.663 789.679 278.85L807.948 345.264L775.551 354.175L753.018 272.257C750.769 264.081 748.35 258.607 745.762 255.834C743.329 253.018 740.415 252.077 737.021 253.011C732.393 254.284 729.427 258.585 728.124 265.913C726.932 273.044 728.013 282.703 731.365 294.891L749.633 361.304L717.237 370.215ZM917.332 328.049C905.367 328.975 895.402 326.698 887.435 321.217C879.615 315.564 873.549 307.689 869.236 297.592C865.07 287.323 862.487 275.728 861.486 262.807C860.424 249.088 861.479 236.809 864.651 225.972C867.812 214.975 872.912 206.235 879.952 199.752C886.98 193.11 895.758 189.381 906.287 188.565C917.134 187.725 926.179 189.512 933.422 193.926C940.664 198.339 946.208 204.65 950.054 212.858C953.887 220.906 956.217 230.274 957.045 240.962C957.613 248.3 957.973 256.055 958.125 264.228L896.15 269.028C896.742 274.599 897.727 280.059 899.104 285.409C900.481 290.759 902.502 295.095 905.167 298.42C907.819 301.584 911.379 302.994 915.846 302.648C921.269 302.228 924.771 299.79 926.352 295.334C928.092 290.867 929.078 285.976 929.308 280.662L959.461 284.585C958.191 297.201 953.767 307.413 946.187 315.222C938.755 322.859 929.136 327.134 917.332 328.049ZM894.501 247.732L926.326 245.267L926.066 241.917C925.72 237.45 924.975 233.015 923.832 228.61C922.676 224.045 920.864 220.334 918.396 217.476C916.075 214.447 912.92 213.086 908.932 213.395C904.785 213.716 901.644 215.644 899.511 219.18C897.365 222.556 895.932 226.839 895.21 232.03C894.649 237.209 894.412 242.443 894.501 247.732ZM972.53 321.482L977.38 189.571L1011.11 186.728L1006.11 322.716L972.53 321.482ZM979.445 172.595L980.617 140.697L1011.32 141.826L1010.14 173.724L979.445 172.595ZM1019.6 324.004L1040.25 194.357L1072.65 195.385L1067.97 224.775C1072.23 214.275 1077.93 207 1085.05 202.95C1092.18 198.9 1100.01 197.554 1108.54 198.913C1117.86 200.398 1124.77 204.819 1129.27 212.178C1133.95 219.404 1135.19 229.97 1132.97 243.875L1117.73 339.628L1084.54 334.345L1097.68 251.864C1099.19 242.383 1099.19 235.741 1097.69 231.938C1096.22 227.977 1093.19 225.631 1088.6 224.902C1083.07 224.021 1077.97 227.096 1073.28 234.127C1068.62 241 1065.4 250.046 1063.62 261.264L1052.78 329.287L1019.6 324.004ZM1162.42 357.047C1149.46 352.917 1140.31 346.056 1134.97 336.462C1129.83 326.764 1129.13 315.54 1132.86 302.79L1160.1 308.197C1158.52 314.745 1158.67 320.335 1160.55 324.965C1162.63 329.492 1166.19 332.556 1171.22 334.16C1175.19 335.423 1178.55 335.403 1181.32 334.102C1184.28 332.696 1186.32 330.24 1187.44 326.734C1188.41 323.685 1188.4 320.826 1187.4 318.158C1186.41 315.489 1184.14 312.331 1180.6 308.684L1162.66 289.871C1156.87 283.825 1153.03 277.146 1151.17 269.833C1149.3 262.521 1149.55 255.13 1151.93 247.66C1154.31 240.19 1158.16 234.194 1163.46 229.67C1168.97 225.043 1175.35 222.125 1182.62 220.915C1190.1 219.602 1197.95 220.257 1206.18 222.88C1218.22 226.718 1226.71 233.032 1231.63 241.822C1236.71 250.66 1237.73 260.893 1234.69 272.521L1206.72 269.401C1210.25 256.754 1207.36 248.949 1198.06 245.986C1194.25 244.771 1191.04 244.839 1188.42 246.19C1185.86 247.387 1184.04 249.663 1182.97 253.017C1182.05 255.914 1182.06 258.772 1183.01 261.593C1184.11 264.463 1186.43 267.721 1189.97 271.368L1205.83 288.008C1212.76 295.254 1217.2 302.38 1219.17 309.387C1221.33 316.291 1221.18 323.63 1218.7 331.405C1216.22 339.18 1212.21 345.457 1206.65 350.236C1201.1 355.016 1194.51 358.038 1186.89 359.303C1179.26 360.568 1171.11 359.816 1162.42 357.047ZM1250.97 392.229C1235.7 384.844 1227.15 373.685 1225.3 358.753C1223.61 343.89 1227.39 326.881 1236.66 307.725C1242.93 294.762 1250.16 284.398 1258.36 276.634C1266.71 268.939 1275.59 264.172 1285.01 262.331C1294.5 260.346 1303.93 261.618 1313.29 266.147C1325.25 271.93 1333.05 280.415 1336.7 291.603C1340.43 302.646 1339.69 314.821 1334.5 328.127L1303.69 320.158C1305.15 316.418 1306.35 312.466 1307.3 308.303C1308.39 304.21 1308.59 300.486 1307.9 297.132C1307.28 293.633 1305.32 291.083 1302 289.481C1297.97 287.53 1293.93 287.976 1289.89 290.82C1285.92 293.519 1282 297.757 1278.14 303.532C1274.5 309.233 1270.97 315.613 1267.55 322.67C1261.63 334.913 1258.04 345.086 1256.79 353.188C1255.68 361.361 1257.86 366.771 1263.33 369.418C1266.79 371.091 1270.05 371.155 1273.11 369.613C1276.31 368.14 1279.14 365.956 1281.61 363.061C1284.14 360.022 1286.18 357.097 1287.72 354.286L1313.91 370.689C1309.35 377.904 1303.63 383.847 1296.75 388.517C1290.09 393.113 1282.79 395.892 1274.86 396.854C1267 397.673 1259.03 396.131 1250.97 392.229ZM1298.61 412.666L1400.2 266.119L1430.14 281.91L1389.39 340.686C1397.05 334.701 1404.56 331.73 1411.92 331.776C1419.51 331.781 1426.53 334.017 1432.97 338.483C1440.73 343.862 1445.04 350.842 1445.91 359.424C1446.99 367.965 1443.53 378.021 1435.5 389.593L1380.26 469.276L1352.65 450.133L1400.23 381.494C1405.7 373.605 1408.59 367.621 1408.88 363.543C1409.27 359.334 1407.56 355.907 1403.74 353.264C1399.14 350.073 1393.21 350.631 1385.94 354.937C1378.76 359.112 1371.93 365.867 1365.46 375.203L1326.22 431.81L1298.61 412.666ZM1404.77 495.469C1397.82 488.842 1394.59 481.109 1395.06 472.271C1395.64 463.317 1400.07 454.499 1408.36 445.817C1415.65 438.177 1423.41 433.751 1431.64 432.539C1440.1 431.322 1448.62 432.706 1457.2 436.692C1465.89 440.562 1474.35 446.418 1482.57 454.26L1491.02 445.405C1494.44 441.816 1496.67 438.086 1497.71 434.214C1498.98 430.336 1497.82 426.685 1494.23 423.261C1491.22 420.39 1487.69 419.567 1483.65 420.794C1479.71 421.905 1475.8 424.034 1471.92 427.18L1454.86 401.948C1465.2 394.123 1475.42 390.715 1485.51 391.722C1495.83 392.725 1505.05 397.092 1513.15 404.824C1524.49 415.648 1529.9 426.668 1529.37 437.884C1528.84 449.1 1523.33 460.207 1512.84 471.204L1475.73 510.1C1471.31 514.73 1467.29 519.408 1463.67 524.133C1460.16 528.968 1457.16 533.961 1454.68 539.112L1431.07 516.58C1433.42 510.866 1436.58 505.813 1440.56 501.419C1434.84 503.93 1428.81 504.92 1422.46 504.39C1416.34 503.855 1410.44 500.881 1404.77 495.469ZM1435.81 465.373C1432.38 468.962 1430.37 472.574 1429.78 476.209C1429.3 479.955 1430.62 483.319 1433.75 486.301C1436.64 489.062 1439.9 490.287 1443.51 489.976C1447.13 489.665 1450.42 487.947 1453.41 484.821L1470.14 467.284C1464.12 461.54 1457.94 458.63 1451.6 458.552C1445.49 458.469 1440.22 460.743 1435.81 465.373ZM1463.65 550.056L1549.34 480.824L1539.54 468.69L1559.14 452.853L1568.94 464.987L1572.86 461.82C1582.45 454.077 1592.2 450.107 1602.12 449.909C1612.14 449.835 1621.32 454.963 1629.66 465.293C1634.99 471.889 1638.61 478.531 1640.52 485.219L1620.98 498.844C1619.44 495.153 1617.41 491.752 1614.9 488.641C1611.88 484.907 1608.61 483.024 1605.09 482.991C1601.66 483.083 1598.02 484.687 1594.17 487.804L1590.06 491.122L1606.05 510.911L1584.48 524.321L1570.46 506.96L1484.77 576.191L1463.65 550.056ZM1525.8 639.552C1520.19 630.793 1518.18 622.012 1519.76 613.209C1521.35 604.406 1527.8 596.381 1539.12 589.135L1601.57 549.151L1592.77 535.406L1614 521.82L1623.57 536.777L1651.06 523.173L1669.62 545.488L1640.91 563.862L1655.15 586.097L1632.24 597.056L1619.69 577.449L1562.89 613.81C1557.77 617.088 1554.69 620.582 1553.64 624.29C1552.68 628.134 1553.45 632.01 1555.96 635.917C1557.08 637.669 1558.14 639.176 1559.13 640.437C1560.27 641.612 1561.44 642.854 1562.66 644.164L1540.49 654.937C1537.86 653.202 1535.37 651.092 1533.02 648.607C1530.53 646.208 1528.13 643.19 1525.8 639.552ZM1557.86 703.332C1552.74 692.478 1551.33 682.353 1553.62 672.959C1556.13 663.641 1561.34 655.173 1569.24 647.554C1577.36 640.013 1587.28 633.479 1599.01 627.953C1611.45 622.086 1623.31 618.711 1634.56 617.826C1645.97 616.874 1655.95 618.537 1664.51 622.815C1673.21 627.025 1679.82 633.906 1684.32 643.458C1688.96 653.299 1690.5 662.389 1688.95 670.727C1687.4 679.065 1683.47 686.489 1677.16 693C1671 699.441 1663.07 704.948 1653.37 709.518C1646.72 712.657 1639.59 715.748 1632.01 718.793L1605.51 662.566C1600.51 665.099 1595.75 667.959 1591.24 671.147C1586.73 674.334 1583.39 677.764 1581.23 681.436C1579.22 685.039 1579.16 688.867 1581.08 692.92C1583.39 697.841 1586.92 700.248 1591.64 700.143C1596.44 700.183 1601.36 699.366 1606.41 697.694L1613.45 727.274C1601.21 730.569 1590.09 730.061 1580.1 725.749C1570.32 721.515 1562.91 714.042 1557.86 703.332ZM1624.83 653.459L1638.44 682.332L1641.48 680.9C1645.53 678.99 1649.41 676.718 1653.12 674.084C1656.98 671.382 1659.8 668.37 1661.6 665.047C1663.6 661.801 1663.76 658.369 1662.05 654.751C1660.28 650.988 1657.36 648.738 1653.3 647.999C1649.38 647.193 1644.86 647.375 1639.76 648.544C1634.72 649.859 1629.74 651.497 1624.83 653.459ZM1581.87 748.771L1707.84 711.809L1720.81 741.519L1692.25 749.898C1703.57 749.246 1712.58 751.27 1719.3 755.97C1726.01 760.669 1730.59 767.164 1733.02 775.455C1735.68 784.513 1734.65 792.652 1729.93 799.873C1725.41 807.201 1716.39 812.848 1702.88 816.812L1609.85 844.112L1600.39 811.871L1680.53 788.356C1689.74 785.653 1695.74 782.808 1698.53 779.821C1701.48 776.789 1702.3 773.047 1700.99 768.595C1699.41 763.221 1694.45 759.927 1686.09 758.711C1677.88 757.451 1668.32 758.42 1657.42 761.619L1591.33 781.012L1581.87 748.771Z" fill="#FF6100"/>
<path d="M957.649 82.0867C1440.9 82.0867 1832.65 473.838 1832.65 957.087C1832.65 1440.34 1440.9 1832.09 957.649 1832.09C474.4 1832.09 82.6494 1440.34 82.6494 957.087C82.6494 473.838 474.4 82.0867 957.649 82.0867Z" stroke="black" stroke-width="50"/>
<path d="M412.614 1544.89L523.524 1403.12L598.757 1461.98L577.881 1482.82L533.27 1447.92L506.356 1482.33L542.271 1510.42L521.69 1530.89L488.61 1505.01L458.443 1543.57L506.834 1581.43L486.146 1602.42L412.614 1544.89ZM520.146 1623.79L579.115 1506.5L609.681 1517.3L596.313 1543.89C603.559 1535.17 611.12 1529.93 618.995 1528.16C626.869 1526.39 634.166 1527.19 640.885 1530.57C647.604 1533.95 651.994 1538.75 654.055 1544.98C656.331 1551.14 655.705 1559.15 652.177 1569.02C659.207 1561.09 666.409 1556.38 673.782 1554.9C681.298 1553.48 688.344 1554.43 694.92 1557.73C703.068 1561.83 707.777 1567.96 709.047 1576.12C710.317 1584.28 707.539 1595.15 700.711 1608.73L658.236 1693.21L628.217 1678.12L666.379 1602.21C670.188 1594.64 672.061 1588.95 671.998 1585.16C672.078 1581.44 670.545 1578.79 667.4 1577.21C663.112 1575.05 658.029 1576.26 652.151 1580.82C646.489 1585.32 640.818 1593.21 635.141 1604.51L604.201 1666.05L574.181 1650.95L612.344 1575.05C616.153 1567.47 618.026 1561.79 617.963 1557.99C618.043 1554.27 616.51 1551.62 613.365 1550.04C609.077 1547.89 603.994 1549.09 598.116 1553.66C592.453 1558.15 586.783 1566.05 581.105 1577.34L550.166 1638.88L520.146 1623.79ZM691.991 1706.87L746.269 1537.26L779.587 1543.39L723.992 1717.11L691.991 1706.87ZM754.28 1725.52L784.721 1597.07L818.356 1600.85L786.974 1733.26L754.28 1725.52ZM790.052 1580.82L797.413 1549.77L827.305 1556.85L819.944 1587.91L790.052 1580.82ZM865.168 1747.85C848.33 1745.81 836.621 1738.03 830.039 1724.5C823.616 1710.99 821.683 1693.67 824.24 1672.55C825.97 1658.25 829.456 1646.1 834.696 1636.1C840.094 1626.12 846.952 1618.73 855.269 1613.93C863.604 1608.98 872.935 1607.13 883.259 1608.38C896.443 1609.97 906.576 1615.47 913.658 1624.87C920.759 1634.11 924.01 1645.86 923.41 1660.14L891.687 1662.58C891.85 1658.57 891.704 1654.44 891.251 1650.2C890.957 1645.97 889.941 1642.39 888.203 1639.43C886.484 1636.33 883.798 1634.55 880.144 1634.11C875.697 1633.57 872.022 1635.3 869.121 1639.3C866.238 1643.14 863.907 1648.42 862.127 1655.14C860.525 1661.71 859.253 1668.89 858.311 1676.67C856.677 1690.17 856.58 1700.96 858.021 1709.03C859.62 1717.12 863.438 1721.53 869.474 1722.26C873.286 1722.73 876.388 1721.73 878.78 1719.28C881.33 1716.85 883.303 1713.87 884.698 1710.33C886.113 1706.63 887.092 1703.2 887.635 1700.05L917.729 1707.07C915.757 1715.38 912.273 1722.85 907.278 1729.5C902.461 1736.01 896.457 1741 889.267 1744.48C882.096 1747.81 874.063 1748.93 865.168 1747.85ZM944.966 1751.41L938.77 1573.2L972.208 1567.95L974.693 1639.43C977.249 1630.06 981.493 1623.18 987.424 1618.82C993.51 1614.28 1000.47 1611.88 1008.31 1611.61C1017.74 1611.28 1025.37 1614.29 1031.19 1620.66C1037.17 1626.85 1040.41 1636.99 1040.9 1651.06L1044.27 1747.96L1010.69 1749.13L1007.78 1665.66C1007.45 1656.06 1006.18 1649.54 1003.98 1646.1C1001.78 1642.49 998.354 1640.77 993.716 1640.93C988.12 1641.12 983.696 1645.12 980.445 1652.92C977.188 1660.56 975.757 1670.05 976.152 1681.4L978.545 1750.24L944.966 1751.41ZM1081.24 1743.52L1046.11 1568.69L1078.25 1558.07L1092.34 1628.19C1093.34 1618.53 1096.4 1611.06 1101.55 1605.78C1106.81 1600.31 1113.29 1596.81 1120.98 1595.27C1130.23 1593.41 1138.25 1595.14 1145.03 1600.47C1151.94 1605.61 1156.78 1615.08 1159.55 1628.89L1178.65 1723.95L1145.71 1730.57L1129.26 1648.68C1127.37 1639.27 1125.06 1633.04 1122.32 1630C1119.56 1626.8 1115.9 1625.66 1111.35 1626.57C1105.86 1627.68 1102.15 1632.34 1100.21 1640.56C1098.24 1648.63 1098.37 1658.23 1100.61 1669.37L1114.18 1736.9L1081.24 1743.52ZM1257.93 1700.83C1246.67 1705 1236.47 1705.55 1227.3 1702.46C1218.23 1699.17 1210.24 1693.25 1203.32 1684.73C1196.5 1675.99 1190.84 1665.55 1186.34 1653.4C1181.55 1640.49 1179.2 1628.4 1179.28 1617.11C1179.31 1605.66 1181.82 1595.86 1186.81 1587.7C1191.75 1579.38 1199.17 1573.39 1209.07 1569.72C1219.27 1565.94 1228.46 1565.18 1236.64 1567.44C1244.81 1569.7 1251.87 1574.25 1257.82 1581.09C1263.71 1587.77 1268.52 1596.15 1272.25 1606.2C1274.81 1613.1 1277.28 1620.46 1279.66 1628.28L1221.38 1649.88C1223.47 1655.07 1225.92 1660.06 1228.71 1664.82C1231.5 1669.59 1234.63 1673.21 1238.11 1675.67C1241.52 1677.99 1245.33 1678.37 1249.53 1676.81C1254.64 1674.92 1257.33 1671.62 1257.63 1666.9C1258.08 1662.13 1257.69 1657.15 1256.46 1651.98L1286.53 1647.49C1288.77 1659.97 1287.31 1671 1282.16 1680.59C1277.11 1689.97 1269.03 1696.72 1257.93 1700.83ZM1213.96 1629.85L1243.89 1618.76L1242.72 1615.61C1241.16 1611.41 1239.23 1607.34 1236.92 1603.42C1234.56 1599.35 1231.8 1596.28 1228.64 1594.2C1225.58 1591.93 1222.17 1591.48 1218.42 1592.87C1214.52 1594.32 1212.03 1597.03 1210.95 1601.02C1209.81 1604.85 1209.6 1609.37 1210.33 1614.56C1211.21 1619.69 1212.42 1624.79 1213.96 1629.85ZM1327.38 1669.64L1267.8 1551.85L1295.94 1533.05L1357.36 1654.47L1327.38 1669.64ZM1261.39 1536L1246.98 1507.52L1274.39 1493.65L1288.8 1522.13L1261.39 1536ZM1390.21 1634.55L1313.51 1528.01L1337.23 1505.91L1354.61 1530.06C1350.24 1519.61 1349.09 1510.48 1351.16 1502.68C1353.24 1494.88 1357.32 1488.78 1363.43 1484.38C1369.53 1479.99 1375.82 1478.32 1382.3 1479.38C1388.81 1480.21 1395.62 1484.47 1402.74 1492.16C1398.96 1482.26 1398.12 1473.7 1400.21 1466.47C1402.44 1459.16 1406.54 1453.35 1412.51 1449.05C1419.91 1443.72 1427.52 1442.38 1435.34 1445.03C1443.17 1447.68 1451.52 1455.17 1460.4 1467.51L1515.65 1544.25L1488.38 1563.88L1438.74 1494.93C1433.78 1488.05 1429.61 1483.76 1426.22 1482.06C1422.96 1480.27 1419.9 1480.4 1417.04 1482.45C1413.15 1485.26 1411.86 1490.32 1413.19 1497.65C1414.56 1504.75 1418.93 1513.43 1426.32 1523.68L1466.57 1579.58L1439.3 1599.21L1389.66 1530.27C1384.7 1523.38 1380.53 1519.09 1377.14 1517.39C1373.88 1515.6 1370.82 1515.73 1367.96 1517.79C1364.06 1520.6 1362.78 1525.66 1364.11 1532.98C1365.48 1540.08 1369.85 1548.76 1377.24 1559.02L1417.48 1614.92L1390.21 1634.55Z" fill="#FF6100"/>
<path d="M178.649 1331.09C1421.38 1331.09 1735.12 1331.09 1736.65 1331.09" stroke="black" stroke-width="58"/>
<defs>
<filter id="filter0_d_0_1" x="0" y="691.399" width="882.516" height="725.186" filterUnits="userSpaceOnUse" color-interpolation-filters="sRGB">
<feFlood flood-opacity="0" result="BackgroundImageFix"/>
<feColorMatrix in="SourceAlpha" type="matrix" values="0 0 0 0 0 0 0 0 0 0 0 0 0 0 0 0 0 0 127 0" result="hardAlpha"/>
<feOffset dy="4"/>
<feGaussianBlur stdDeviation="50"/>
<feComposite in2="hardAlpha" operator="out"/>
<feColorMatrix type="matrix" values="0 0 0 0 0 0 0 0 0 0 0 0 0 0 0 0 0 0 0.72 0"/>
<feBlend mode="normal" in2="BackgroundImageFix" result="effect1_dropShadow_0_1"/>
<feBlend mode="normal" in="SourceGraphic" in2="effect1_dropShadow_0_1" result="shape"/>
</filter>
<filter id="filter1_d_0_1" x="92.3008" y="1029.8" width="298.04" height="318.788" filterUnits="userSpaceOnUse" color-interpolation-filters="sRGB">
<feFlood flood-opacity="0" result="BackgroundImageFix"/>
<feColorMatrix in="SourceAlpha" type="matrix" values="0 0 0 0 0 0 0 0 0 0 0 0 0 0 0 0 0 0 127 0" result="hardAlpha"/>
<feOffset dy="4"/>
<feGaussianBlur stdDeviation="36.5"/>
<feComposite in2="hardAlpha" operator="out"/>
<feColorMatrix type="matrix" values="0 0 0 0 0 0 0 0 0 0 0 0 0 0 0 0 0 0 0.96 0"/>
<feBlend mode="normal" in2="BackgroundImageFix" result="effect1_dropShadow_0_1"/>
<feBlend mode="normal" in="SourceGraphic" in2="effect1_dropShadow_0_1" result="shape"/>
</filter>
<filter id="filter2_d_0_1" x="104.024" y="870.529" width="310.386" height="225.182" filterUnits="userSpaceOnUse" color-interpolation-filters="sRGB">
<feFlood flood-opacity="0" result="BackgroundImageFix"/>
<feColorMatrix in="SourceAlpha" type="matrix" values="0 0 0 0 0 0 0 0 0 0 0 0 0 0 0 0 0 0 127 0" result="hardAlpha"/>
<feOffset dy="4"/>
<feGaussianBlur stdDeviation="36.5"/>
<feComposite in2="hardAlpha" operator="out"/>
<feColorMatrix type="matrix" values="0 0 0 0 0 0 0 0 0 0 0 0 0 0 0 0 0 0 0.96 0"/>
<feBlend mode="normal" in2="BackgroundImageFix" result="effect1_dropShadow_0_1"/>
<feBlend mode="normal" in="SourceGraphic" in2="effect1_dropShadow_0_1" result="shape"/>
</filter>
<filter id="filter3_d_0_1" x="339.773" y="925.911" width="244.612" height="277.318" filterUnits="userSpaceOnUse" color-interpolation-filters="sRGB">
<feFlood flood-opacity="0" result="BackgroundImageFix"/>
<feColorMatrix in="SourceAlpha" type="matrix" values="0 0 0 0 0 0 0 0 0 0 0 0 0 0 0 0 0 0 127 0" result="hardAlpha"/>
<feOffset dy="4"/>
<feGaussianBlur stdDeviation="36.5"/>
<feComposite in2="hardAlpha" operator="out"/>
<feColorMatrix type="matrix" values="0 0 0 0 0 0 0 0 0 0 0 0 0 0 0 0 0 0 0.96 0"/>
<feBlend mode="normal" in2="BackgroundImageFix" result="effect1_dropShadow_0_1"/>
<feBlend mode="normal" in="SourceGraphic" in2="effect1_dropShadow_0_1" result="shape"/>
</filter>
<filter id="filter4_d_0_1" x="483.299" y="1106.71" width="242.398" height="248.717" filterUnits="userSpaceOnUse" color-interpolation-filters="sRGB">
<feFlood flood-opacity="0" result="BackgroundImageFix"/>
<feColorMatrix in="SourceAlpha" type="matrix" values="0 0 0 0 0 0 0 0 0 0 0 0 0 0 0 0 0 0 127 0" result="hardAlpha"/>
<feOffset dy="4"/>
<feGaussianBlur stdDeviation="36.5"/>
<feComposite in2="hardAlpha" operator="out"/>
<feColorMatrix type="matrix" values="0 0 0 0 0 0 0 0 0 0 0 0 0 0 0 0 0 0 0.96 0"/>
<feBlend mode="normal" in2="BackgroundImageFix" result="effect1_dropShadow_0_1"/>
<feBlend mode="normal" in="SourceGraphic" in2="effect1_dropShadow_0_1" result="shape"/>
</filter>
</defs>
</svg>
